<svg width="16" height="12" viewBox="0 0 16 12" fill="none" xmlns="http://www.w3.org/2000/svg">
<path d="M15.5297 0.410018C15.8187 0.683236 15.9874 1.06005 15.9986 1.4576C16.0099 1.85515 15.8628 2.24089 15.5897 2.53002L7.08969 11.53C6.95193 11.6756 6.78639 11.7921 6.60283 11.8727C6.41928 11.9532 6.22145 11.9962 6.02103 11.999C5.8206 12.0018 5.62165 11.9644 5.43592 11.889C5.2502 11.8136 5.08146 11.7017 4.93969 11.56L0.439693 7.06002C0.174733 6.77567 0.0304866 6.39958 0.0373431 6.01097C0.0441995 5.62237 0.201623 5.2516 0.47645 4.97677C0.751276 4.70195 1.12205 4.54452 1.51065 4.53767C1.89925 4.53081 2.27534 4.67506 2.55969 4.94002L5.96969 8.34802L13.4097 0.470018C13.6829 0.181012 14.0597 0.0123408 14.4573 0.00108937C14.8548 -0.010162 15.2406 0.136928 15.5297 0.410018Z" fill="#34C759"/>
</svg>
